<svg xmlns="http://www.w3.org/2000/svg" xmlns:xlink="http://www.w3.org/1999/xlink" id="vector" x="0" y="0" version="1.1" viewBox="0 0 263 263" style="enable-background:new 0 0 263 263" xml:space="preserve"><style type="text/css">.st0{fill:#db4437}.st1{fill:#4285f4}.st2{fill:#0f9d58}.st3{fill:#f4b400}.st4{fill:#b125ea}.st5{fill:#fff}</style><path id="path" d="M162.1,178.6l41.2-41.2l-41.2-41.2L149.4,109l28.5,28.5L149.4,166L162.1,178.6z" class="st0"/><path id="path_1" d="M86.5,74.5h90v17.9h17.9V56.5c0-9.9-8-17.9-17.9-17.9l-89.9-0.1c-9.9,0-17.9,8-17.9,17.9v35.9h17.9	L86.5,74.5L86.5,74.5z" class="st1"/><path id="path_2" d="M176.4,200.2h-90v-17.9H68.6v35.9c0,9.9,8,17.9,17.9,17.9h89.8c9.9,0,17.9-8,17.9-17.9v-35.9h-17.9	L176.4,200.2L176.4,200.2z" class="st2"/><path id="path_3" d="M113.5,165.8L85,137.3l28.5-28.5L100.8,96l-41.2,41.2l41.2,41.2L113.5,165.8z" class="st3"/><polygon points="136.1 0 0 136.1 0 72.9 72.9 0" class="st4"/><g><g><g><polygon points="17 91.5 27.5 92.8 32.1 88.2 18.3 86.2 16.3 72.4 11.7 77 13 87.5 7.1 81.6 3.2 85.6 19 101.4 22.9 97.4" class="st5"/></g></g></g><g><path d="M27.3,61.4l-4.7,4.7c-1.7,1.7-1.7,4.6,0,6.3L32,82c1.7,1.7,4.6,1.7,6.3,0l4.7-4.7c1.7-1.7,1.7-4.6,0-6.3 l-9.5-9.5C31.9,59.7,29,59.7,27.3,61.4z M39.9,74.1l-4.7,4.7l-9.5-9.5l4.7-4.7L39.9,74.1z" class="st5"/></g><path d="M33.5,55.2l3.9,3.9l5.9-5.9L55.1,65l3.9-3.9L47.3,49.3l5.9-5.9l-3.9-3.9L33.5,55.2z" class="st5"/><g><g><path d="M68.2,44.2l5.9-5.9l3.9,3.9l-9.9,9.9L52.4,36.3l3.9-3.9L68.2,44.2z" class="st5"/></g></g><path d="M82.3,6.4l9.2,9.2L75.7,13l-3.3,3.3l15.8,15.8l3.3-3.3l-9.2-9.2l15.9,2.5l3.2-3.2L85.6,3.2L82.3,6.4z" class="st5"/><g><path d="M65.4,23.4l3.9-3.9l15.8,15.8l-3.9,3.9L65.4,23.4z" class="st5"/></g></svg>